<?xml version="1.0" standalone="no"?>
<!DOCTYPE svg PUBLIC "-//W3C//DTD SVG 20010904//EN"
 "http://www.w3.org/TR/2001/REC-SVG-20010904/DTD/svg10.dtd">
<svg version="1.0" xmlns="http://www.w3.org/2000/svg"
 width="900.000000pt" height="900.000000pt" viewBox="0 0 900.000000 900.000000"
 preserveAspectRatio="xMidYMid meet">

<g transform="translate(0.000000,900.000000) scale(0.100000,-0.100000)"
fill="#000000" stroke="none">
<path d="M3855 8190 c-351 -19 -637 -90 -875 -218 -145 -78 -180 -103 -506
-377 -183 -154 -332 -268 -509 -390 -162 -112 -315 -226 -398 -300 -298 -259
-554 -699 -748 -1286 -67 -203 -148 -499 -168 -615 -53 -306 -71 -503 -71
-787 0 -365 38 -647 120 -897 50 -152 101 -260 250 -525 67 -121 163 -294 213
-385 104 -191 180 -318 245 -410 286 -401 787 -752 1327 -931 88 -29 171 -57
185 -63 18 -7 -138 -13 -565 -22 -1100 -23 -1745 -67 -1745 -119 0 -17 12 -21
125 -39 164 -28 556 -54 1133 -76 1231 -47 3713 -52 5072 -10 721 22 1348 67
1483 106 9 3 17 11 17 19 0 17 -15 22 -105 34 -293 41 -981 76 -1778 91 -252
4 -461 11 -464 14 -10 9 -5 11 112 51 352 118 741 320 1010 523 127 97 475
445 581 582 105 136 151 211 241 397 173 358 327 830 402 1228 47 251 54 323
48 495 -7 232 -40 381 -151 677 -44 119 -275 663 -361 853 -24 52 -78 174
-120 270 -240 547 -383 754 -738 1067 -259 228 -349 279 -839 467 -106 41
-323 127 -483 191 -603 243 -662 266 -755 295 -137 43 -267 68 -410 79 -183
15 -603 21 -775 11z m1065 -1679 c676 -110 1259 -537 1569 -1150 80 -158 133
-295 166 -430 123 -501 85 -945 -121 -1416 -133 -303 -393 -624 -672 -832
-283 -211 -633 -356 -981 -408 -124 -18 -454 -20 -563 -4 -572 86 -1056 364
-1412 811 -235 294 -368 596 -433 978 -27 161 -24 522 6 688 79 438 261 794
581 1135 339 362 827 595 1365 651 93 10 375 -4 495 -23z"/>
<path d="M4455 6215 c-260 -35 -549 -143 -762 -286 -209 -140 -413 -348 -532
-542 -108 -177 -192 -384 -242 -597 -20 -84 -23 -123 -23 -335 -1 -260 5 -309
64 -506 124 -419 397 -777 775 -1016 189 -119 432 -210 666 -248 140 -22 436
-20 575 4 488 87 906 358 1179 766 128 191 229 436 275 670 28 137 37 388 21
543 -76 730 -589 1321 -1310 1508 -201 52 -469 67 -686 39z m150 -907 c85 -13
220 -59 295 -100 226 -125 378 -316 456 -573 25 -83 28 -104 28 -260 0 -145
-3 -182 -22 -250 -59 -213 -217 -436 -388 -550 -84 -56 -212 -112 -310 -137
-127 -31 -342 -31 -467 0 -163 41 -366 164 -476 288 -109 124 -193 293 -226
456 -22 113 -20 310 5 406 44 173 116 304 239 434 230 243 520 339 866 286z"/>
</g>
</svg>
